<?xml version="1.0" standalone="no"?>
<!DOCTYPE svg PUBLIC "-//W3C//DTD SVG 20010904//EN"
 "http://www.w3.org/TR/2001/REC-SVG-20010904/DTD/svg10.dtd">
<svg version="1.0" xmlns="http://www.w3.org/2000/svg"
 width="1800.000000pt" height="893.000000pt" viewBox="0 0 1800.000000 893.000000"
 preserveAspectRatio="xMidYMid meet">

<g transform="translate(0.000000,893.000000) scale(0.100000,-0.100000)"
fill="#000000" stroke="none">
<path d="M0 8135 l0 -795 64 0 c133 0 318 -51 455 -126 225 -123 441 -354 668
-714 46 -74 82 -138 80 -144 -7 -21 -97 -77 -154 -98 -163 -57 -351 -18 -465
95 l-44 44 -33 -23 c-109 -74 -278 -42 -355 67 l-15 22 -27 -32 c-14 -18 -44
-41 -65 -51 -29 -15 -41 -29 -49 -58 -5 -20 -21 -57 -35 -81 l-25 -43 0 -3099
0 -3099 9000 0 9000 0 0 3101 0 3102 -50 -47 c-229 -214 -650 -132 -750 147
-8 24 -14 27 -56 27 -75 0 -125 20 -174 70 l-45 45 -30 -29 c-32 -31 -128 -80
-146 -74 -5 2 23 51 63 109 200 289 424 539 603 672 164 123 398 217 536 217
l49 0 0 795 0 795 -9000 0 -9000 0 0 -795z m9982 375 c6 0 45 25 85 56 41 31
76 54 79 52 2 -3 -10 -44 -26 -93 -17 -49 -30 -92 -30 -95 0 -4 37 -33 83 -66
l82 -59 -106 -3 -106 -3 -29 -94 c-15 -51 -31 -92 -34 -90 -3 2 -19 44 -35 94
l-29 90 -105 3 -105 3 82 59 c45 33 82 64 82 71 0 6 -13 51 -30 100 -16 49
-30 90 -30 92 0 2 36 -24 81 -57 44 -33 86 -60 91 -60z m-3269 -262 c31 22 49
30 45 20 -4 -9 -12 -35 -19 -58 -12 -41 -12 -43 13 -61 15 -11 37 -28 50 -39
l23 -19 -62 -1 -61 0 -20 -57 -19 -58 -18 58 -19 57 -65 0 -66 0 49 35 c27 19
50 36 52 38 2 2 -3 26 -11 53 -21 69 -20 69 31 30 l45 -35 52 37z m-6103 -58
c20 11 21 10 15 -10 -5 -15 -1 -26 12 -35 17 -14 17 -14 -4 -15 -12 0 -26 -7
-31 -16 -8 -15 -10 -15 -15 0 -4 9 -16 16 -28 16 -21 0 -21 1 -5 19 10 11 14
25 9 37 -6 17 -5 17 9 6 13 -10 22 -11 38 -2z m658 -154 c59 -43 46 -46 157
37 33 25 61 44 62 43 2 -1 -11 -42 -27 -91 -17 -49 -30 -94 -30 -100 0 -6 36
-36 79 -66 l80 -54 -102 -5 -102 -5 -30 -92 c-16 -51 -32 -93 -35 -93 -3 0
-19 42 -36 93 l-30 92 -102 5 -101 5 79 55 c44 30 79 60 80 66 0 5 -13 50 -30
99 -16 49 -30 91 -30 93 0 2 15 -7 33 -20 17 -14 56 -42 85 -62z m15468 -384
c30 22 57 39 59 36 3 -3 -4 -31 -15 -63 -11 -32 -20 -61 -20 -65 0 -4 26 -24
57 -46 l57 -39 -72 -3 -71 -3 -22 -69 c-13 -38 -25 -67 -28 -64 -3 3 -15 33
-26 67 l-20 62 -73 0 c-39 0 -72 2 -72 5 1 3 25 22 55 43 30 21 55 44 55 51 0
7 -9 39 -20 71 -11 32 -20 60 -20 62 0 1 27 -17 61 -42 l61 -44 54 41z m-4592
-37 c18 -14 36 -25 40 -25 4 0 24 12 43 27 l36 28 -6 -28 c-4 -15 -10 -37 -13
-50 -4 -19 3 -29 37 -53 l43 -29 -56 -3 -56 -3 -12 -45 c-14 -50 -20 -49 -35
4 -10 36 -12 37 -65 42 l-55 5 40 30 c22 16 41 30 43 31 1 0 -5 20 -13 44 -22
61 -20 63 29 25z m-7288 -232 l30 -23 60 43 c32 24 64 46 71 50 7 5 2 -22 -13
-64 -13 -40 -24 -78 -24 -84 0 -6 25 -29 55 -49 87 -60 86 -63 -8 -58 l-83 4
-18 -58 c-37 -119 -35 -119 -65 -29 l-26 80 -83 -4 c-45 -2 -82 1 -82 5 0 5
29 29 65 53 36 24 65 47 65 51 0 4 -11 40 -25 80 -14 40 -25 75 -25 78 0 2 17
-8 38 -24 20 -15 51 -38 68 -51z m1146 -37 c166 -58 307 -163 568 -425 185
-185 380 -403 380 -424 0 -13 -53 -58 -95 -80 -30 -16 -58 -21 -110 -21 -81 0
-138 24 -192 81 -18 19 -33 30 -33 24 0 -19 -53 -72 -91 -91 -21 -11 -58 -20
-84 -20 -31 0 -45 -4 -45 -13 0 -8 -14 -41 -31 -75 -38 -77 -119 -153 -197
-183 -79 -31 -195 -31 -274 0 -104 40 -198 147 -227 258 -8 30 -21 47 -46 63
-19 12 -43 35 -52 51 -20 34 -29 36 -38 10 -10 -32 -81 -89 -126 -101 -23 -7
-58 -9 -78 -5 -40 8 -106 39 -116 55 -4 7 -19 -5 -36 -29 -114 -154 -366 -173
-498 -37 l-34 35 216 214 c420 418 672 616 887 700 135 53 227 56 352 13z
m4737 -22 c308 -69 571 -336 832 -848 l61 -118 -29 -30 c-15 -16 -57 -43 -93
-61 -56 -28 -75 -32 -145 -32 -71 0 -88 4 -148 33 -44 22 -81 50 -109 82 l-42
48 -30 -23 c-90 -69 -238 -39 -290 58 l-19 35 -21 -31 c-12 -17 -37 -42 -56
-55 -25 -17 -38 -36 -50 -75 -24 -76 -44 -109 -95 -160 -203 -203 -536 -116
-629 166 -4 12 -16 17 -46 17 -57 0 -99 20 -143 69 l-38 42 -45 -40 c-44 -39
-104 -68 -104 -51 0 16 141 252 221 370 209 308 414 500 621 580 128 49 249
57 397 24z m3984 -1859 c-3 -9 -8 -14 -10 -11 -3 3 -2 9 2 15 9 16 15 13 8 -4z"/>
</g>
</svg>
